# Alias OBJ Model File
# Exported from SketchUp, (c) 2000-2012 Trimble Navigation Limited
# File units = meters

mtllib EXHIBITIONNEW.mtl

g Mesh1 Model

usemtl FrontColor
v 8.87515 2 -4.78076
vt -349.415 188.219
vn 0 -1 -0
v 8.87515 2 -1.3242
vt -349.415 52.1339
v 7.66082 2 -0.11
vt -301.607 4.33071
v 0.914091 2 -0.11
vt -35.9878 4.33071
v 0.914091 2 -0.51
vt -35.9878 20.0787
v 7.49515 2 -0.51
vt -295.085 20.0787
v 8.47515 2 -1.49
vt -333.667 58.6614
v 8.47515 2 -4.53229
vt -333.667 178.437
v 7.37524 2 -5.07605
vt -290.364 199.845
v 2.03488 2 -2.9329
vt -80.1133 115.469
v 2.70072 2 -1.27135
vt -106.328 50.0531
v 2.32942 2 -1.12256
vt -91.7096 44.1951
v 1.51461 2 -3.15533
vt -59.6304 124.226
v 7.39222 2 -5.51387
vt -291.032 217.081
f 1/1/1 2/2/1 3/3/1 4/4/1 5/5/1 6/6/1 7/7/1 8/8/1 9/9/1 10/10/1 11/11/1 12/12/1 13/13/1 14/14/1 

v 8.87515 -1.80478e-16 -4.78076
vt 188.219 -7.10543e-15
vn 1 0 -0
vt 188.219 78.7402
vt 52.1339 78.7402
v 8.87515 5.41434e-16 -1.3242
vt 52.1339 2.13163e-14
v 8.87515 0 -1.48576
vt 58.4943 0
v 8.87515 0 -4.5385
vt 178.681 0
f 15/15/2 1/16/2 2/17/2 16/18/2 17/19/2 18/20/2 

v 7.39222 0 -5.51387
vt -164.688 2.6937e-15
vn 0.44317 -8.32476e-18 -0.896438
vt -164.688 78.7402
vt -229.816 78.7402
vt -229.816 -4.41173e-15
v 8.65798 0 -4.88812
vt -220.279 2.6937e-15
v 7.5485 0 -5.43661
vt -171.552 2.6937e-15
f 19/21/3 14/22/3 1/23/3 15/24/3 20/25/3 21/26/3 

vt -350.941 2.11206e-15
vn -0.37241 -2.26901e-17 -0.928068
v 7.23041 0 -5.44894
vt -344.077 2.11206e-15
v 1.51461 0 -3.15533
vt -101.604 2.11206e-15
vt -101.604 78.7402
vt -350.941 78.7402
f 19/27/4 22/28/4 23/29/4 13/30/4 14/31/4 

vt -284.662 214.525
vt -297.185 214.04
v 7.37567 0 -5.087
vt -290.381 200.275
f 22/32/1 19/14/1 21/33/1 24/34/1 

vt 290.381 200.275
vn 0 1 -0
v 8.48515 0 -4.5385
vt 334.061 178.681
vt 340.865 192.445
vt 297.185 214.04
f 24/35/5 25/36/5 20/37/5 21/38/5 

vt -340.865 192.445
vn -2.36688e-16 -1 1.47021e-16
vt -349.415 178.681
vt -334.061 178.681
f 20/39/6 15/1/6 18/40/6 25/41/6 

v 8.48515 0 -1.48576
vt 334.061 58.4943
vt 349.415 58.4943
vt 349.415 178.681
f 25/36/5 26/42/5 17/43/5 18/44/5 

vt -349.415 58.4943
vn 6.12838e-16 -1 2.53865e-16
v 8.7609 0 -1.20997
vt -344.917 47.6366
vt -334.061 58.4943
f 17/45/7 16/2/7 27/46/7 26/47/7 

vt 283.949 2.52751e-14
vn 0.70707 -1.88342e-17 0.707144
vt 283.949 78.7402
vt 216.342 78.7402
v 7.66082 -1.80478e-16 -0.11
vt 216.342 -3.14658e-15
v 7.77505 0 -0.224214
vt 222.701 3.95884e-15
vt 277.589 3.95884e-15
f 16/48/8 2/49/8 3/50/8 28/51/8 29/52/8 27/53/8 

vt 301.607 -7.10543e-15
vn -1.02405e-13 5.52108e-31 1
vt 301.607 78.7402
vt 35.9878 78.7402
v 0.914091 0 -0.11
vt 35.9878 2.39102e-30
v 7.49929 0 -0.11
vt 295.248 2.39102e-30
f 28/54/9 3/55/9 4/56/9 30/57/9 31/58/9 

v 0.914091 0 -0.5
vt 19.685 0
v 0.914091 0 -0.51
vt 20.0787 0
vt 20.0787 78.7402
vt 4.33071 78.7402
vt 4.33071 0
f 32/59/2 33/60/2 5/61/2 4/62/2 30/63/2 

vt 35.9878 0
vn -3.44444e-14 0 1
v 7.49515 0 -0.51
vt 295.085 0
vt 295.085 78.7402
f 33/64/10 34/65/10 6/66/10 5/56/10 

vt 222.854 0
vn 0.707107 0 0.707107
v 8.47515 0 -1.49
vt 277.418 0
vt 277.418 78.7402
vt 222.854 78.7402
f 34/67/11 35/68/11 7/69/11 6/70/11 

vt 58.6614 0
vn 1 0 -2.98039e-13
v 8.47515 0 -4.53229
vt 178.437 0
vt 178.437 78.7402
vt 58.6614 78.7402
f 35/71/12 36/72/12 8/73/12 7/74/12 

vt -220.034 0
vn 0.44317 0 -0.896438
v 7.37524 0 -5.07605
vt -171.728 0
vt -171.728 78.7402
vt -220.034 78.7402
f 36/75/13 37/76/13 9/77/13 8/78/13 

vt -343.904 0
vn -0.372439 0 -0.928057
v 2.03488 0 -2.9329
vt -117.355 0
vt -117.355 78.7402
vt -343.904 78.7402
f 37/79/14 38/80/14 10/81/14 9/82/14 

vt -77.3823 0
vn -0.928241 0 0.371979
v 2.70072 0 -1.27135
vt -6.90966 0
vt -6.90966 78.7402
vt -77.3823 78.7402
f 38/83/15 39/84/15 11/85/15 10/86/15 

vt -117.316 0
vn -0.371979 0 -0.928241
v 2.32942 0 -1.12256
vt -101.568 0
vt -101.568 78.7402
vt -117.316 78.7402
f 39/87/16 40/88/16 12/89/16 11/90/16 

vt 6.90966 -2.45465e-15
vn 0.928241 2.41674e-17 -0.371979
v 1.65986 0 -2.79339
vt 77.7758 -2.45465e-15
vt 6.90966 78.7402
f 40/91/17 41/92/17 12/93/17

vt 93.1212 78.7321
vn 0.928208 7.94456e-05 -0.372061
vt 6.9007 78.7321
vt 77.7668 -0.0080697
f 13/94/18 12/95/18 41/96/18

vt 93.0798 1.63495e-15
vn 0.928057 -1.6091e-17 -0.372439
vt 93.0798 78.7402
vt 77.7255 1.63495e-15
f 23/97/19 13/98/19 41/99/19

vt 65.3489 109.976
vt 284.662 214.525
vt 59.6304 124.226
f 41/100/5 24/35/5 22/101/5 23/102/5 

v 7.49929 0 -0.5
vt 295.248 19.685
vt 35.9878 19.685
vt 35.9878 4.33071
vt 295.248 4.33071
f 42/103/5 32/104/5 30/105/5 31/106/5 

vt -306.104 8.82732
vn -8.46044e-17 -1 -2.04268e-16
vt -295.248 4.33071
vt -295.248 19.685
f 29/107/20 28/3/20 31/108/20 42/109/20 

vt 306.104 8.82732
vt 344.917 47.6366
f 26/42/5 42/103/5 29/110/5 27/111/5 

